# xmcd CD database file
#
# Track frame offsets:
#	150
#	19057
#	34542
#	54235
#	69950
#	88722
#	107692
#	127025
#	145735
#	164170
#	186400
#	204805
#	225930
#	245280
#	264827
#	281595
#	299377
#
# Disc length: 4240 seconds
#
# Revision: 6
# Processed by: cddbd v1.4PL0 Copyright (c) Steve Scherf et al.
# Submitted via: CDex 1.50
#
DISCID=e7108e11
DTITLE=Juan Luis Guerra - Grandes Exitos de 4 40
DYEAR=1996
DGENRE=Merengue
TTITLE0=El costo de la vida
TTITLE1=Rosalía
TTITLE2=Woman del callao
TTITLE3=Visa para un sueño
TTITLE4=Burbujas de amor
TTITLE5=Ojalá que llueva café
TTITLE6=Me enamoro de ella
TTITLE7=Frío Frío
TTITLE8=Como abeja al panal
TTITLE9=A perdir su mano
TTITLE10=La bilirrubina
TTITLE11=Carta de amor
TTITLE12=Bachata rosa
TTITLE13=Guavaberry
TTITLE14=La cosquillita
TTITLE15=Si tu te vas
TTITLE16=Señorita
EXTD=YEAR: 1996
EXTT0=
EXTT1=
EXTT2=
EXTT3=
EXTT4=
EXTT5=
EXTT6=
EXTT7=
EXTT8=
EXTT9=
EXTT10=
EXTT11=
EXTT12=
EXTT13=
EXTT14=
EXTT15=
EXTT16=
PLAYORDER=
